<svg width="833" height="219" viewBox="0 0 833 219" fill="none" xmlns="http://www.w3.org/2000/svg">
<g filter="url(#filter0_d_57_132)">
<path d="M791.44 56.2946H734.049V100.247C734.049 103.173 734.666 106.19 735.9 109.298C738.414 115.652 742.574 118.829 748.379 118.829C756.196 118.829 762.139 115.561 766.207 109.024C769.361 103.995 770.938 99.2642 770.938 94.8301V67.5399H784.858V125.96C783.761 125.32 781.704 124.337 778.687 123.012L770.801 119.515V114.029C765.407 117.961 760.79 120.452 756.951 121.503C754.619 122.143 751.854 122.463 748.654 122.463C738.506 122.463 730.574 118.006 724.86 109.092C722.255 105.024 720.952 100.59 720.952 95.7901V56.2946H712.655V48.0664H791.44V56.2946Z" fill="white"/>
<path d="M715.33 56.2947H659.995V76.9338C664.978 71.4941 669.594 67.9971 673.846 66.4429C676.223 65.5743 678.897 65.1401 681.868 65.1401C693.022 65.1401 701.365 70.6255 706.896 81.5965C709.318 86.3963 710.53 91.1275 710.53 95.7902C710.53 104.293 707.033 111.972 700.039 118.829C697.708 121.115 695.97 122.692 694.828 123.56L683.582 116.841C686.417 113.869 689.639 110.212 693.251 105.87C697.319 100.979 699.376 94.8074 699.422 87.3562C699.467 82.9221 698.462 79.2195 696.405 76.2482C694.073 72.774 690.782 71.0827 686.531 71.1741C682.6 71.2655 678.394 72.7512 673.914 75.631C669.892 78.1909 666.555 81.2537 663.903 84.8192C661.023 88.659 659.583 92.3617 659.583 95.9273V123.149L646.761 116.292V56.2947H639.219V48.0665H646.761C646.761 34.6271 643.264 23.1533 636.27 13.6451C632.065 7.93109 628.179 3.90841 624.614 1.57708L638.464 1.43994C646.144 5.64547 652.247 14.7194 656.772 28.6616C658.921 35.2899 659.995 41.7582 659.995 48.0665H715.33V56.2947Z" fill="white"/>
<path d="M640.864 56.2947H595.883V73.9854C598.58 72.4312 602.991 70.397 609.117 67.8828C611.631 67.1971 614.671 66.8543 618.236 66.8543C623.128 66.8543 627.493 68.2028 631.333 70.8998C635.63 73.8711 637.779 77.711 637.779 82.4193C637.779 88.7733 634.144 93.3903 626.876 96.2701C623.859 97.4587 621.254 98.0529 619.059 98.0529L634.967 117.389L626.259 123.698L601.78 94.6245L606.306 85.2306C608.728 85.9163 611.265 86.2591 613.917 86.2591C617.802 86.2591 620.979 85.3449 623.448 83.5164C626.236 81.5051 627.63 78.6252 627.63 74.8768C627.63 71.2198 625.025 69.3913 619.814 69.3913C616.157 69.3913 612.271 71.1512 608.157 74.6711C605.231 77.1852 602.557 80.2251 600.134 83.7907C597.209 88.0876 595.746 91.7675 595.746 94.8302V123.56L583.952 118.281V56.2947H575.244V48.0665H583.541C583.541 34.9471 581.164 24.0447 576.41 15.3593C575.495 13.668 573.736 11.131 571.13 7.74824C568.661 4.50266 566.947 1.91992 565.987 0H579.907C582.604 2.51418 585.392 6.65114 588.272 12.4109C593.163 22.1933 595.609 34.0785 595.609 48.0665H640.864V56.2947Z" fill="white"/>
<path d="M577.781 56.2947H532.8V73.9854C535.497 72.4312 539.908 70.397 546.034 67.8828C548.548 67.1971 551.588 66.8543 555.153 66.8543C560.045 66.8543 564.41 68.2028 568.25 70.8998C572.547 73.8711 574.695 77.711 574.695 82.4193C574.695 88.7733 571.061 93.3903 563.793 96.2701C560.776 97.4587 558.171 98.0529 555.976 98.0529L571.884 117.389L563.176 123.698L538.697 94.6245L543.223 85.2306C545.645 85.9163 548.182 86.2591 550.834 86.2591C554.719 86.2591 557.896 85.3449 560.365 83.5164C563.153 81.5051 564.547 78.6252 564.547 74.8768C564.547 71.2198 561.942 69.3913 556.731 69.3913C553.074 69.3913 549.188 71.1512 545.074 74.6711C542.148 77.1852 539.474 80.2251 537.051 83.7907C534.126 88.0876 532.663 91.7675 532.663 94.8302V123.56L520.869 118.281V56.2947H512.161V48.0665H520.458C520.458 34.9471 518.081 24.0447 513.327 15.3593C512.412 13.668 510.653 11.131 508.047 7.74824C505.578 4.50266 503.864 1.91992 502.904 0H516.824C519.521 2.51418 522.309 6.65114 525.189 12.4109C530.08 22.1933 532.526 34.0785 532.526 48.0665H577.781V56.2947Z" fill="white"/>
<path d="M514.081 56.2946H468.414V67.2656C468.597 67.2656 468.78 67.357 468.963 67.5399C469.146 67.7227 469.306 67.8141 469.443 67.8141C469.077 67.8141 468.871 67.7913 468.826 67.7456C468.826 67.517 472.231 66.7856 479.042 65.5514C481.557 65.0942 484.048 64.8657 486.516 64.8657C496.802 64.8657 503.407 67.7456 506.333 73.5053C508.298 77.3452 509.281 85.0934 509.281 96.75V123.149C508.321 122.783 504.687 121.298 498.379 118.692C498.379 117.229 498.082 116.292 497.487 115.881C495.065 117.298 493.076 118.372 491.522 119.103C486.585 121.435 480.848 122.6 474.311 122.6C465.306 122.6 458.358 119.766 453.466 114.098C451.089 111.355 449.901 108.292 449.901 104.91C449.901 101.116 451.775 97.3443 455.523 93.5959C462.792 86.3276 471.82 82.6935 482.608 82.6935C489.145 82.6935 494.402 84.202 498.379 87.219V80.9107C496.367 78.3508 494.402 76.6366 492.482 75.7681C490.608 74.8995 488.025 74.511 484.734 74.6024C477.374 74.7395 470.631 76.0881 464.506 78.6479C461.763 79.7908 459.089 80.8193 456.483 81.7335V76.6595C457.078 76.1566 457.946 75.4024 459.089 74.3967C459.272 74.1681 459.386 74.031 459.432 73.9853V56.2946H445.375V48.0664H514.081V56.2946ZM498.379 99.6985C498.379 97.6871 495.979 95.8815 491.179 94.2816C487.202 92.9559 483.888 92.2931 481.237 92.2931C471.591 92.2931 463.866 95.7672 458.06 102.715C455.729 105.504 454.563 107.79 454.563 109.572C455.523 112.909 459.295 114.578 465.877 114.578C474.38 114.578 482.151 112.452 489.19 108.201C495.316 104.498 498.379 101.664 498.379 99.6985Z" fill="white"/>
<path d="M447.775 56.2947H392.44V76.9338C397.423 71.4941 402.04 67.9971 406.291 66.4429C408.668 65.5743 411.342 65.1401 414.314 65.1401C425.468 65.1401 433.81 70.6255 439.341 81.5965C441.764 86.3963 442.975 91.1275 442.975 95.7902C442.975 104.293 439.478 111.972 432.484 118.829C430.153 121.115 428.416 122.692 427.273 123.56L416.028 116.841C418.862 113.869 422.085 110.212 425.696 105.87C429.765 100.979 431.822 94.8074 431.867 87.3562C431.913 82.9221 430.907 79.2195 428.85 76.2482C426.519 72.774 423.228 71.0827 418.976 71.1741C415.045 71.2655 410.84 72.7512 406.36 75.631C402.337 78.1909 399 81.2537 396.349 84.8192C393.469 88.659 392.029 92.3617 392.029 95.9273V123.149L379.207 116.292V56.2947H371.664V48.0665H379.207C379.207 34.6271 375.71 23.1533 368.716 13.6451C364.51 7.93109 360.625 3.90841 357.059 1.57708L370.91 1.43994C378.59 5.64547 384.692 14.7194 389.218 28.6616C391.366 35.2899 392.44 41.7582 392.44 48.0665H447.775V56.2947Z" fill="white"/>
<path d="M373.516 56.2946H359.185V75.4252C362.202 78.2137 364.03 80.0193 364.67 80.8421C365.813 82.3049 366.979 84.5677 368.167 87.6304H359.048C359.048 82.6478 357.631 78.7622 354.796 75.9738C352.008 73.1853 348.122 71.7911 343.14 71.7911C337.929 71.7911 333.06 73.231 328.535 76.1109C324.192 78.8537 320.695 82.5564 318.044 87.219C315.529 91.6531 314.272 95.9501 314.272 100.11C314.272 105.001 316.032 108.727 319.552 111.287C322.661 113.572 326.752 114.715 331.826 114.715C340.283 114.715 346.18 112.384 349.517 107.721H364.122C362.887 112.658 358.339 116.818 350.477 120.2C346.957 121.709 343.688 122.463 340.671 122.463C334.774 122.463 328.832 120.795 322.843 117.458C317.129 114.304 312.421 110.258 308.718 105.321C305.016 100.338 303.164 95.4244 303.164 90.5789C303.164 86.9219 304.787 82.7849 308.033 78.168C314.844 68.477 323.141 63.6315 332.923 63.6315C339.368 63.6315 344.465 64.98 348.214 67.677V56.2946H299.804V48.0664H373.516V56.2946Z" fill="white"/>
<path d="M172.405 37L172.405 48L104.408 48.5L104.408 100.982C104.408 108.792 105.617 114.469 108.034 118.013C110.773 121.918 115.553 124.051 122.374 124.411C126.725 124.652 131.075 123.06 135.426 119.635C139.293 116.632 142.488 112.817 145.013 108.191C147.752 103.144 149.122 98.2181 149.122 93.412L148.96 59.4386L165.798 65.9269V158.205C165.798 169.439 161.179 178.601 151.941 185.69C143.401 192.238 133.385 195.512 121.891 195.512C102.448 195.512 88.6174 189.595 80.3998 177.76C77.0698 172.953 75.4048 168.838 75.4048 165.414C75.4585 157.904 79.2182 151.596 86.6839 146.49C93.2902 141.984 100.138 139.731 107.228 139.731L117.46 155.051C108.222 155.771 99.9502 157.964 92.6456 161.629C87.8655 164.032 85.4754 167.126 85.4754 170.911C86.0662 176.378 89.7453 181.214 96.5128 185.419C100.541 187.943 105.751 189.204 112.142 189.204C126.805 189.204 137.869 183.887 145.335 173.254C148.88 168.207 150.652 162.32 150.652 155.591V118.914C147.161 125.283 137.842 128.467 122.696 128.467C109.967 128.467 100.326 123.6 93.7736 113.868C90.551 109.122 88.9397 103.715 88.9397 97.6474V47.8138H77.4995V37H172.405Z" fill="#FFBB00"/>
<path d="M301.93 56.2946H228.219V48.0664H301.93V56.2946ZM287.188 86.3962C287.188 75.4252 282 69.9398 271.623 69.9398C263.943 69.9398 257.521 73.9624 252.355 82.0078C247.784 89.1389 245.498 96.7272 245.498 104.773V124.726L234.253 118.829V67.2656H246.047V75.4252L252.149 70.8311C257.543 66.7627 263.235 64.7285 269.223 64.7285C277.36 64.7285 284.102 67.8827 289.451 74.191C294.479 80.1336 296.993 87.2419 296.993 95.5158C296.993 105.892 292.605 115.858 283.828 125.412L270.594 117.115C274.708 113.046 278.205 109.298 281.085 105.87C285.154 101.024 287.188 94.533 287.188 86.3962Z" fill="white"/>
<path d="M229.11 56.2946H183.444V67.2656C183.627 67.2656 183.81 67.357 183.992 67.5399C184.175 67.7227 184.335 67.8141 184.472 67.8141C184.107 67.8141 183.901 67.7913 183.855 67.7456C183.855 67.517 187.261 66.7856 194.072 65.5514C196.586 65.0942 199.077 64.8657 201.546 64.8657C211.831 64.8657 218.437 67.7456 221.362 73.5053C223.328 77.3452 224.311 85.0934 224.311 96.75V123.149C223.351 122.783 219.717 121.298 213.408 118.692C213.408 117.229 213.111 116.292 212.517 115.881C210.094 117.298 208.106 118.372 206.551 119.103C201.614 121.435 195.878 122.6 189.341 122.6C180.335 122.6 173.387 119.766 168.496 114.098C166.119 111.355 164.93 108.292 164.93 104.91C164.93 101.116 166.805 97.3443 170.553 93.5959C177.821 86.3276 186.849 82.6935 197.637 82.6935C204.174 82.6935 209.431 84.202 213.408 87.219V80.9107C211.397 78.3508 209.431 76.6366 207.511 75.7681C205.637 74.8995 203.054 74.511 199.763 74.6024C192.403 74.7395 185.661 76.0881 179.535 78.6479C176.793 79.7908 174.118 80.8193 171.513 81.7335V76.6595C172.107 76.1566 172.976 75.4024 174.118 74.3967C174.301 74.1681 174.416 74.031 174.461 73.9853V56.2946H160.405V48.0664H229.11V56.2946ZM213.408 99.6985C213.408 97.6871 211.008 95.8815 206.209 94.2816C202.232 92.9559 198.917 92.2931 196.266 92.2931C186.621 92.2931 178.895 95.7672 173.09 102.715C170.759 105.504 169.593 107.79 169.593 109.572C170.553 112.909 174.324 114.578 180.907 114.578C189.409 114.578 197.18 112.452 204.22 108.201C210.345 104.498 213.408 101.664 213.408 99.6985Z" fill="white"/>
<path d="M90.7161 133.108C90.7161 141.611 86.602 145.862 78.3738 145.862C74.7168 145.862 69.4142 144.125 62.4659 140.651C54.7862 136.811 48.3408 134.891 43.1296 134.891C31.9301 134.891 21.3705 139.302 11.4509 148.125C6.69685 152.376 2.9713 157.381 0.274273 163.141C0.0914236 162.41 0 161.244 0 159.644C0 154.159 1.64564 148.696 4.93693 143.256C7.95394 138.228 11.8623 134.022 16.6621 130.64C22.0562 126.846 28.2045 124.949 35.1071 124.949C39.8611 124.949 43.9981 125.748 47.518 127.348C49.3922 128.217 53.0034 130.457 58.3518 134.068C62.923 137.177 66.42 138.731 68.8428 138.731C74.8768 138.731 79.6766 136.239 83.2421 131.257C84.7964 129.108 85.5735 127.006 85.5735 124.949C85.5735 121.337 84.4764 118.32 82.2822 115.897C80.088 113.429 77.2081 112.195 73.6425 112.195C70.3513 112.195 64.9343 113.863 57.3918 117.2C49.8493 120.492 44.4324 122.137 41.1411 122.137C38.7183 122.137 35.7927 120.926 32.3643 118.503C25.2332 113.429 21.6676 108.698 21.6676 104.309C21.6676 101.887 23.0162 99.6696 25.7132 97.6583C28.1359 95.7841 30.6273 94.7327 33.1871 94.5041L33.3243 93.7499L29.9644 89.0186C28.0902 86.3673 27.1531 83.5103 27.1531 80.4476C27.1531 69.9337 35.747 64.6768 52.9349 64.6768C53.4377 64.5854 53.7805 64.174 53.9634 63.4426V55.8315H18.4449V47.6033H88.9333V55.8315H64.5915V67.351C64.5915 69.4995 65.2086 70.8251 66.4429 71.328C67.22 71.328 68.2028 70.6194 69.3913 69.2023L71.9969 66.0482C72.6826 65.3625 73.9168 64.9054 75.6996 64.6768C78.5795 64.6768 81.3222 66.3225 83.9278 69.6138C85.1163 71.1223 85.8935 72.6308 86.2592 74.1393L79.0595 82.3675C78.968 80.2647 78.5338 78.3448 77.7567 76.6077C76.7053 74.2764 75.3339 73.1107 73.6425 73.1107C73.0026 73.1107 72.2483 73.4079 71.3798 74.0021C70.5113 74.5964 70.077 75.1907 70.077 75.7849C70.077 76.4706 70.3741 77.2934 70.9684 78.2534C71.6541 79.3962 72.0426 80.1047 72.134 80.379C72.454 81.4304 72.614 82.7561 72.614 84.356C72.614 90.5271 70.0998 94.7098 65.0715 96.904C61.7345 98.3668 56.4776 99.0982 49.3007 99.0982C40.1583 99.0982 33.9185 101.132 30.5815 105.201C29.2559 106.801 28.6159 108.104 28.6616 109.109C28.7073 110.481 29.393 111.692 30.7187 112.743C32.0443 113.749 33.4157 114.252 34.8328 114.252C37.4384 114.252 42.4439 112.446 49.8493 108.835C58.5803 104.584 65.62 102.412 70.9684 102.321C75.8596 102.229 79.9737 104.401 83.3107 108.835C86.0077 112.355 87.9505 116.835 89.139 122.274C90.1904 127.074 90.7161 130.685 90.7161 133.108ZM64.043 78.0477C64.043 72.5165 61.0945 69.7509 55.1976 69.7509C50.4435 69.7509 45.9409 71.4194 41.6896 74.7564C37.1184 78.322 34.8328 82.4132 34.8328 87.0302C34.8328 89.5443 35.7927 91.6928 37.7127 93.4756C39.6783 95.2584 41.9182 96.1498 44.4324 96.1498C47.038 96.1955 49.9864 95.2584 53.2777 93.3384C56.2033 91.6471 58.6261 89.6815 60.546 87.4416C62.8773 84.6988 64.043 81.5675 64.043 78.0477Z" fill="white"/>
<path d="M211.709 160.871H202.727V175.16C202.727 175.562 202.858 175.953 203.118 176.331C203.39 176.746 203.721 176.953 204.112 176.953C205.875 176.953 206.757 175.13 206.757 171.486L210.325 173.527C208.964 176.544 206.857 178.047 204.005 178.036C202.349 178.024 201.059 177.266 200.136 175.763C199.733 175.113 199.532 174.462 199.532 173.811V160.871H195.822V158.741H199.532V152.777L202.727 154.996V158.741H211.709V160.871ZM230.968 160.871H216.644V166.214C217.934 164.806 219.129 163.9 220.229 163.498C220.845 163.273 221.537 163.161 222.306 163.161C225.193 163.161 227.353 164.581 228.785 167.421C229.412 168.663 229.726 169.888 229.726 171.095C229.726 173.296 228.82 175.284 227.01 177.059C226.406 177.651 225.957 178.059 225.661 178.284L222.75 176.544C223.483 175.775 224.318 174.829 225.253 173.704C226.306 172.438 226.838 170.841 226.85 168.912C226.862 167.764 226.602 166.805 226.069 166.036C225.466 165.137 224.614 164.699 223.513 164.723C222.495 164.746 221.407 165.131 220.247 165.877C219.206 166.539 218.342 167.332 217.655 168.255C216.91 169.249 216.537 170.208 216.537 171.131V178.178L213.218 176.402V160.871H211.265V158.741H213.218C213.218 155.262 212.313 152.292 210.502 149.83C209.413 148.351 208.407 147.31 207.484 146.706L211.07 146.671C213.058 147.759 214.638 150.108 215.809 153.718C216.366 155.433 216.644 157.108 216.644 158.741H230.968V160.871ZM249.482 160.871H244.636V164.368C245.192 164.498 245.594 164.658 245.843 164.847V166.942C244.435 166.456 242.967 166.214 241.441 166.214C240.34 166.214 239.275 166.397 238.246 166.764C236.873 167.249 236.181 167.941 236.169 168.841C236.145 169.788 237.488 170.261 240.198 170.261C240.258 170.261 240.642 170.243 241.352 170.208L242.417 170.154V171.787C240.808 171.835 239.802 171.876 239.4 171.912C236.571 172.16 235.157 172.977 235.157 174.361C235.157 175.13 235.648 175.734 236.631 176.172C237.4 176.515 238.228 176.686 239.116 176.686C242.961 176.686 246.074 174.982 248.452 171.574V176.065C246.417 177.355 244.009 178 241.228 178C238.187 178 235.56 177.296 233.347 175.888C232.27 175.201 231.731 174.414 231.731 173.527C231.731 172.663 232.11 171.912 232.867 171.273C233.329 170.882 234.092 170.432 235.157 169.924L233.986 169.249C233.288 168.847 232.938 168.308 232.938 167.634C232.938 166.166 234.045 165.113 236.258 164.474C237.938 163.989 239.826 163.746 241.92 163.746V160.871H230.542V158.741H249.482V160.871ZM278.894 160.871H264.037V172.249C264.037 173.006 264.197 173.787 264.516 174.592C265.167 176.237 266.244 177.059 267.747 177.059C269.77 177.059 271.309 176.213 272.362 174.521C273.178 173.219 273.587 171.994 273.587 170.847V163.782H277.19V178.905C276.906 178.74 276.374 178.485 275.593 178.142L273.551 177.237V175.817C272.155 176.834 270.96 177.479 269.966 177.751C269.362 177.917 268.646 178 267.818 178C265.191 178 263.138 176.846 261.659 174.539C260.984 173.485 260.647 172.338 260.647 171.095V160.871H258.499V158.741H278.894V160.871ZM286.598 160.871H284.716V158.741H286.598V160.871ZM280.527 160.871H278.504V158.741H280.527V160.871ZM284.13 156.593V178.444C284.012 178.408 283.858 178.343 283.669 178.249L282.746 177.769C281.693 177.225 281.137 176.953 281.077 176.953V156.629C281.077 155.386 280.835 154.067 280.35 152.67C279.675 150.718 278.628 148.943 277.208 147.345L276.09 146.085H279.87C281.835 148.049 283.125 150.457 283.74 153.309C284 154.516 284.13 155.611 284.13 156.593ZM302.023 160.871H293.041V175.16C293.041 175.562 293.171 175.953 293.432 176.331C293.704 176.746 294.035 176.953 294.426 176.953C296.189 176.953 297.07 175.13 297.07 171.486L300.638 173.527C299.277 176.544 297.171 178.047 294.319 178.036C292.662 178.024 291.373 177.266 290.45 175.763C290.047 175.113 289.846 174.462 289.846 173.811V160.871H286.136V158.741H289.846V152.777L293.041 154.996V158.741H302.023V160.871ZM307.792 156.877C307.744 156.924 307.608 156.948 307.383 156.948C307.194 156.948 307.028 156.924 306.886 156.877L305.733 154.516C305.259 153.771 304.614 153.268 303.798 153.008C302.993 152.735 302.496 152.44 302.307 152.12C302.129 151.576 301.786 150.741 301.277 149.617V149.209H301.97C302.881 149.493 303.62 149.759 304.188 150.008C305.123 150.422 305.75 150.901 306.07 151.445C306.247 151.741 306.52 152.499 306.886 153.718C307.23 154.865 307.519 155.664 307.756 156.114C307.78 156.327 307.792 156.581 307.792 156.877ZM308.839 160.871H301.615V158.741H308.839V160.871ZM306.815 178.408L303.833 176.757V163.054H306.815V178.408ZM335.766 160.871H329.909L329.944 163.356C331.553 163.948 332.713 164.723 333.423 165.681C334.157 166.675 334.524 168.018 334.524 169.711C334.524 172.148 333.547 174.243 331.595 175.994C331.228 176.326 330.666 176.757 329.909 177.29C328.974 177.953 328.382 178.284 328.134 178.284C327.885 178.284 326.743 177.243 324.708 175.16C325.962 175.089 327.27 174.687 328.631 173.953C329.92 173.267 331.015 172.426 331.914 171.432C332.885 170.367 333.37 169.237 333.37 168.042C333.37 166.859 332.713 166.036 331.4 165.575C330.761 165.35 330.128 165.249 329.5 165.273C325.666 165.427 323.317 167.657 322.453 171.965L318.815 170.474C318.815 169.48 319.199 168.367 319.968 167.137C320.252 166.687 320.4 166.433 320.412 166.374C320.412 165.817 319.613 165.539 318.016 165.539C315.969 165.539 314.377 166.439 313.241 168.237C312.744 169.03 312.496 169.823 312.496 170.616C312.496 172.273 313.259 173.841 314.785 175.32L318.158 178.586C316.099 177.876 314.188 176.846 312.425 175.497C310.07 173.699 308.892 171.77 308.892 169.711C308.892 167.107 310.206 165.167 312.833 163.888C313.981 163.332 315.164 163.054 316.383 163.054C317.945 163.054 319.507 163.522 321.069 164.456C321.661 164.811 322.004 165.001 322.098 165.024C322.998 164.634 323.986 164.214 325.063 163.764C325.631 163.528 326.205 163.368 326.785 163.285L326.82 160.871H308.36V158.741H335.766V160.871ZM352.895 160.871H341.074V163.711C341.121 163.711 341.168 163.735 341.216 163.782C341.263 163.829 341.304 163.853 341.34 163.853C341.245 163.853 341.192 163.847 341.18 163.835C341.18 163.776 342.062 163.587 343.825 163.267C344.476 163.149 345.121 163.09 345.76 163.09C348.422 163.09 350.132 163.835 350.889 165.326C351.398 166.32 351.653 168.326 351.653 171.344V178.178C351.404 178.083 350.463 177.698 348.83 177.024C348.83 176.645 348.754 176.402 348.6 176.296C347.973 176.663 347.458 176.941 347.055 177.13C345.777 177.734 344.292 178.036 342.6 178.036C340.269 178.036 338.47 177.302 337.204 175.834C336.589 175.124 336.281 174.332 336.281 173.456C336.281 172.474 336.766 171.497 337.736 170.527C339.618 168.646 341.955 167.705 344.748 167.705C346.44 167.705 347.801 168.095 348.83 168.876V167.243C348.31 166.581 347.801 166.137 347.304 165.912C346.819 165.687 346.15 165.587 345.298 165.61C343.393 165.646 341.647 165.995 340.062 166.658C339.352 166.953 338.66 167.22 337.985 167.456V166.143C338.139 166.013 338.364 165.817 338.66 165.557C338.707 165.498 338.736 165.462 338.748 165.451V160.871H335.109V158.741H352.895V160.871ZM348.83 172.107C348.83 171.586 348.209 171.119 346.967 170.705C345.937 170.361 345.079 170.19 344.393 170.19C341.896 170.19 339.896 171.089 338.393 172.888C337.79 173.61 337.488 174.201 337.488 174.663C337.736 175.527 338.713 175.959 340.417 175.959C342.618 175.959 344.63 175.408 346.452 174.308C348.038 173.349 348.83 172.616 348.83 172.107ZM368.551 160.871H359.569V175.16C359.569 175.562 359.7 175.953 359.96 176.331C360.232 176.746 360.563 176.953 360.954 176.953C362.717 176.953 363.599 175.13 363.599 171.486L367.167 173.527C365.806 176.544 363.699 178.047 360.847 178.036C359.191 178.024 357.901 177.266 356.978 175.763C356.576 175.113 356.374 174.462 356.374 173.811V160.871H352.665V158.741H356.374V152.777L359.569 154.996V158.741H368.551V160.871ZM387.011 160.871H382.166V164.368C382.722 164.498 383.124 164.658 383.373 164.847V166.942C381.964 166.456 380.497 166.214 378.971 166.214C377.87 166.214 376.805 166.397 375.775 166.764C374.403 167.249 373.711 167.941 373.699 168.841C373.675 169.788 375.018 170.261 377.728 170.261C377.787 170.261 378.172 170.243 378.882 170.208L379.947 170.154V171.787C378.337 171.835 377.332 171.876 376.929 171.912C374.101 172.16 372.687 172.977 372.687 174.361C372.687 175.13 373.178 175.734 374.16 176.172C374.929 176.515 375.758 176.686 376.645 176.686C380.491 176.686 383.603 174.982 385.982 171.574V176.065C383.947 177.355 381.538 178 378.758 178C375.716 178 373.089 177.296 370.876 175.888C369.8 175.201 369.261 174.414 369.261 173.527C369.261 172.663 369.64 171.912 370.397 171.273C370.859 170.882 371.622 170.432 372.687 169.924L371.515 169.249C370.817 168.847 370.468 168.308 370.468 167.634C370.468 166.166 371.575 165.113 373.787 164.474C375.468 163.989 377.355 163.746 379.45 163.746V160.871H368.072V158.741H387.011V160.871ZM404.389 160.871H402.507V158.741H404.389V160.871ZM398.318 160.871H396.295V158.741H398.318V160.871ZM401.922 156.593V178.444C401.803 178.408 401.65 178.343 401.46 178.249L400.537 177.769C399.484 177.225 398.928 176.953 398.869 176.953V156.629C398.869 155.386 398.626 154.067 398.141 152.67C397.466 150.718 396.419 148.943 394.999 147.345L393.881 146.085H397.662C399.626 148.049 400.916 150.457 401.531 153.309C401.792 154.516 401.922 155.611 401.922 156.593ZM410.105 156.877C410.057 156.924 409.921 156.948 409.696 156.948C409.507 156.948 409.341 156.924 409.199 156.877L408.046 154.516C407.572 153.771 406.927 153.268 406.111 153.008C405.306 152.735 404.809 152.44 404.62 152.12C404.442 151.576 404.099 150.741 403.59 149.617V149.209H404.283C405.194 149.493 405.933 149.759 406.501 150.008C407.436 150.422 408.063 150.901 408.383 151.445C408.56 151.741 408.833 152.499 409.199 153.718C409.543 154.865 409.832 155.664 410.069 156.114C410.093 156.327 410.105 156.581 410.105 156.877ZM411.152 160.871H403.928V158.741H411.152V160.871ZM409.128 178.408L406.146 176.757V163.054H409.128V178.408ZM430.482 160.871H416.992V167.492C417.974 166.273 419.145 165.22 420.506 164.332C421.429 163.729 422.352 163.427 423.275 163.427C425.145 163.427 426.719 164.143 427.997 165.575C429.169 166.888 429.754 168.314 429.754 169.853C429.754 171.628 428.896 173.432 427.18 175.266C425.465 177.089 423.725 178 421.962 178C421.063 178 420.116 177.598 419.122 176.793C418.814 176.544 418.057 175.805 416.85 174.574V178.213L413.761 176.882V160.871H410.85V158.741H413.761C413.761 155.924 412.974 153.161 411.4 150.451C410.158 148.31 408.969 146.742 407.833 145.748H411.72C412.891 146.742 413.915 148.002 414.791 149.528C416.258 152.096 416.992 155.167 416.992 158.741H430.482V160.871ZM427.784 171.681C427.784 170.58 427.169 169.391 425.938 168.113C424.565 166.681 422.974 165.965 421.163 165.965C420.027 165.965 418.962 166.527 417.968 167.652C417.578 168.101 417.382 168.438 417.382 168.663C417.382 169.646 417.82 170.782 418.696 172.071C420.542 174.793 422.447 176.154 424.411 176.154C425.654 176.154 426.624 175.355 427.322 173.758C427.63 173.059 427.784 172.367 427.784 171.681ZM448.108 160.871H430.163V158.741H448.108V160.871ZM446.635 167.243C446.635 167.941 446.215 168.728 445.375 169.604C444.665 170.35 443.919 170.906 443.138 171.273L440.475 168.255C441.28 168.184 442.043 167.888 442.765 167.368C443.594 166.776 444.008 166.101 444.008 165.344C444.008 164.942 443.747 164.598 443.227 164.314C442.777 164.054 442.333 163.924 441.896 163.924C440.984 163.924 440.008 164.362 438.967 165.238C436.848 167.013 435.789 168.977 435.789 171.131V178.657L432.381 176.882V163.746H435.825V165.096C436.334 164.587 437.387 164.054 438.984 163.498C439.765 163.226 440.57 163.09 441.398 163.09C443.114 163.09 444.57 163.746 445.765 165.06C446.345 165.699 446.635 166.427 446.635 167.243ZM465.148 160.871H453.327V163.711C453.374 163.711 453.421 163.735 453.469 163.782C453.516 163.829 453.557 163.853 453.593 163.853C453.498 163.853 453.445 163.847 453.433 163.835C453.433 163.776 454.315 163.587 456.078 163.267C456.729 163.149 457.374 163.09 458.013 163.09C460.675 163.09 462.385 163.835 463.143 165.326C463.652 166.32 463.906 168.326 463.906 171.344V178.178C463.657 178.083 462.717 177.698 461.084 177.024C461.084 176.645 461.007 176.402 460.853 176.296C460.226 176.663 459.711 176.941 459.309 177.13C458.031 177.734 456.545 178.036 454.853 178.036C452.522 178.036 450.723 177.302 449.457 175.834C448.842 175.124 448.534 174.332 448.534 173.456C448.534 172.474 449.019 171.497 449.99 170.527C451.871 168.646 454.208 167.705 457.001 167.705C458.693 167.705 460.054 168.095 461.084 168.876V167.243C460.563 166.581 460.054 166.137 459.557 165.912C459.072 165.687 458.403 165.587 457.551 165.61C455.646 165.646 453.901 165.995 452.315 166.658C451.605 166.953 450.913 167.22 450.238 167.456V166.143C450.392 166.013 450.617 165.817 450.913 165.557C450.96 165.498 450.99 165.462 451.001 165.451V160.871H447.363V158.741H465.148V160.871ZM461.084 172.107C461.084 171.586 460.462 171.119 459.22 170.705C458.19 170.361 457.332 170.19 456.646 170.19C454.149 170.19 452.149 171.089 450.646 172.888C450.043 173.61 449.741 174.201 449.741 174.663C449.99 175.527 450.966 175.959 452.67 175.959C454.871 175.959 456.883 175.408 458.705 174.308C460.291 173.349 461.084 172.616 461.084 172.107ZM482.863 160.871H464.918V158.741H482.863V160.871ZM481.39 167.243C481.39 167.941 480.97 168.728 480.13 169.604C479.42 170.35 478.674 170.906 477.893 171.273L475.231 168.255C476.035 168.184 476.799 167.888 477.52 167.368C478.349 166.776 478.763 166.101 478.763 165.344C478.763 164.942 478.503 164.598 477.982 164.314C477.532 164.054 477.089 163.924 476.651 163.924C475.74 163.924 474.763 164.362 473.722 165.238C471.604 167.013 470.545 168.977 470.545 171.131V178.657L467.137 176.882V163.746H470.58V165.096C471.089 164.587 472.142 164.054 473.74 163.498C474.521 163.226 475.325 163.09 476.154 163.09C477.87 163.09 479.325 163.746 480.52 165.06C481.1 165.699 481.39 166.427 481.39 167.243ZM488.561 156.877C488.514 156.924 488.378 156.948 488.153 156.948C487.964 156.948 487.798 156.924 487.656 156.877L486.502 154.516C486.029 153.771 485.384 153.268 484.567 153.008C483.763 152.735 483.266 152.44 483.076 152.12C482.899 151.576 482.556 150.741 482.047 149.617V149.209H482.739C483.65 149.493 484.39 149.759 484.958 150.008C485.893 150.422 486.52 150.901 486.839 151.445C487.017 151.741 487.289 152.499 487.656 153.718C487.999 154.865 488.289 155.664 488.526 156.114C488.549 156.327 488.561 156.581 488.561 156.877ZM489.608 160.871H482.384V158.741H489.608V160.871ZM487.585 178.408L484.603 176.757V163.054H487.585V178.408ZM506.826 160.871H495.005V163.711C495.052 163.711 495.099 163.735 495.147 163.782C495.194 163.829 495.235 163.853 495.271 163.853C495.176 163.853 495.123 163.847 495.111 163.835C495.111 163.776 495.993 163.587 497.756 163.267C498.407 163.149 499.052 163.09 499.691 163.09C502.353 163.09 504.063 163.835 504.82 165.326C505.329 166.32 505.584 168.326 505.584 171.344V178.178C505.335 178.083 504.394 177.698 502.761 177.024C502.761 176.645 502.685 176.402 502.531 176.296C501.903 176.663 501.389 176.941 500.986 177.13C499.708 177.734 498.223 178.036 496.531 178.036C494.2 178.036 492.401 177.302 491.135 175.834C490.52 175.124 490.212 174.332 490.212 173.456C490.212 172.474 490.697 171.497 491.667 170.527C493.549 168.646 495.886 167.705 498.679 167.705C500.371 167.705 501.732 168.095 502.761 168.876V167.243C502.241 166.581 501.732 166.137 501.235 165.912C500.75 165.687 500.081 165.587 499.229 165.61C497.324 165.646 495.578 165.995 493.993 166.658C493.283 166.953 492.59 167.22 491.916 167.456V166.143C492.07 166.013 492.295 165.817 492.59 165.557C492.638 165.498 492.667 165.462 492.679 165.451V160.871H489.04V158.741H506.826V160.871ZM502.761 172.107C502.761 171.586 502.14 171.119 500.898 170.705C499.868 170.361 499.01 170.19 498.324 170.19C495.827 170.19 493.827 171.089 492.324 172.888C491.721 173.61 491.419 174.201 491.419 174.663C491.667 175.527 492.644 175.959 494.348 175.959C496.549 175.959 498.561 175.408 500.383 174.308C501.969 173.349 502.761 172.616 502.761 172.107ZM525.677 160.871H506.596V158.741H525.677V160.871ZM521.861 168.663C521.861 165.823 520.518 164.403 517.831 164.403C515.843 164.403 514.181 165.445 512.844 167.527C511.66 169.373 511.069 171.338 511.069 173.42V178.586L508.158 177.059V163.711H511.211V165.823L512.79 164.634C514.187 163.581 515.66 163.054 517.21 163.054C519.317 163.054 521.062 163.871 522.447 165.504C523.748 167.042 524.399 168.882 524.399 171.024C524.399 173.71 523.263 176.29 520.991 178.763L517.565 176.615C518.63 175.562 519.536 174.592 520.281 173.704C521.334 172.45 521.861 170.77 521.861 168.663ZM552.516 160.871H540.694V163.711C540.741 163.711 540.789 163.735 540.836 163.782C540.883 163.829 540.925 163.853 540.96 163.853C540.865 163.853 540.812 163.847 540.8 163.835C540.8 163.776 541.682 163.587 543.445 163.267C544.096 163.149 544.741 163.09 545.38 163.09C548.043 163.09 549.753 163.835 550.51 165.326C551.019 166.32 551.273 168.326 551.273 171.344V178.178C551.025 178.083 550.084 177.698 548.451 177.024C548.451 176.645 548.374 176.402 548.22 176.296C547.593 176.663 547.078 176.941 546.676 177.13C545.398 177.734 543.913 178.036 542.22 178.036C539.889 178.036 538.091 177.302 536.824 175.834C536.209 175.124 535.901 174.332 535.901 173.456C535.901 172.474 536.386 171.497 537.357 170.527C539.238 168.646 541.576 167.705 544.368 167.705C546.06 167.705 547.421 168.095 548.451 168.876V167.243C547.93 166.581 547.421 166.137 546.924 165.912C546.439 165.687 545.771 165.587 544.918 165.61C543.013 165.646 541.268 165.995 539.682 166.658C538.972 166.953 538.28 167.22 537.605 167.456V166.143C537.759 166.013 537.984 165.817 538.28 165.557C538.327 165.498 538.357 165.462 538.369 165.451V160.871H534.73V158.741H552.516V160.871ZM548.451 172.107C548.451 171.586 547.83 171.119 546.587 170.705C545.558 170.361 544.7 170.19 544.013 170.19C541.516 170.19 539.516 171.089 538.014 172.888C537.41 173.61 537.108 174.201 537.108 174.663C537.357 175.527 538.333 175.959 540.037 175.959C542.238 175.959 544.25 175.408 546.072 174.308C547.658 173.349 548.451 172.616 548.451 172.107ZM568.171 160.871H559.19V175.16C559.19 175.562 559.32 175.953 559.58 176.331C559.852 176.746 560.184 176.953 560.574 176.953C562.338 176.953 563.219 175.13 563.219 171.486L566.787 173.527C565.426 176.544 563.32 178.047 560.468 178.036C558.811 178.024 557.521 177.266 556.598 175.763C556.196 175.113 555.995 174.462 555.995 173.811V160.871H552.285V158.741H555.995V152.777L559.19 154.996V158.741H568.171V160.871ZM598.099 158.741L598.063 160.871H583.082L583.117 171.344C583.117 172.882 583.383 174 583.916 174.698C584.52 175.468 585.573 175.888 587.076 175.959C588.034 176.006 588.993 175.692 589.951 175.018C590.803 174.426 591.507 173.675 592.063 172.764C592.667 171.77 592.969 170.799 592.969 169.853L592.933 163.161L596.643 164.439V182.615C596.643 184.828 595.625 186.633 593.59 188.029C591.708 189.319 589.501 189.964 586.969 189.964C582.685 189.964 579.638 188.798 577.828 186.467C577.094 185.52 576.727 184.71 576.727 184.035C576.739 182.556 577.567 181.313 579.212 180.308C580.668 179.42 582.176 178.976 583.738 178.976L585.993 181.994C583.957 182.136 582.135 182.568 580.526 183.29C579.472 183.763 578.946 184.372 578.946 185.118C579.076 186.195 579.887 187.147 581.378 187.976C582.265 188.473 583.413 188.721 584.821 188.721C588.052 188.721 590.49 187.674 592.134 185.579C592.915 184.585 593.306 183.426 593.306 182.1V174.876C592.537 176.13 590.484 176.757 587.147 176.757C584.342 176.757 582.218 175.799 580.774 173.882C580.064 172.947 579.709 171.882 579.709 170.687V160.871H577.189V158.741H598.099ZM616.807 160.871H612.814V165.752C612.814 165.859 613.287 166.385 614.234 167.332C614.955 168.208 615.316 169.462 615.316 171.095C615.316 173.805 614.115 175.811 611.713 177.112C610.577 177.728 609.34 178.036 608.003 178.036C606.063 178.036 604.063 177.178 602.004 175.462C599.85 173.663 598.773 171.71 598.773 169.604C598.773 168.634 599.122 167.628 599.82 166.587C600.447 165.652 601.205 164.877 602.092 164.261C603.157 163.528 604.441 163.161 605.944 163.161C606.773 163.161 607.997 163.38 609.618 163.817C609.689 163.817 609.725 163.77 609.725 163.675V160.871H597.548V158.741H616.807V160.871ZM612.707 168.734C612.707 167.066 611.973 165.948 610.506 165.38C609.962 165.167 609.494 165.06 609.104 165.06C607.636 165.06 606.057 165.717 604.364 167.03C602.388 168.569 601.4 170.527 601.4 172.906C601.4 174.018 602.039 174.929 603.317 175.639C603.897 175.959 604.483 176.118 605.074 176.118C606.542 176.118 608.151 175.408 609.903 173.988C611.772 172.474 612.707 170.722 612.707 168.734ZM636.386 160.871H621.529V172.249C621.529 173.006 621.689 173.787 622.008 174.592C622.659 176.237 623.736 177.059 625.239 177.059C627.262 177.059 628.801 176.213 629.854 174.521C630.67 173.219 631.079 171.994 631.079 170.847V163.782H634.682V178.905C634.398 178.74 633.865 178.485 633.084 178.142L631.043 177.237V175.817C629.647 176.834 628.452 177.479 627.458 177.751C626.854 177.917 626.138 178 625.31 178C622.683 178 620.63 176.846 619.15 174.539C618.476 173.485 618.139 172.338 618.139 171.095V160.871H615.991V158.741H636.386V160.871ZM654.012 160.871H636.067V158.741H654.012V160.871ZM652.539 167.243C652.539 167.941 652.119 168.728 651.279 169.604C650.569 170.35 649.823 170.906 649.042 171.273L646.379 168.255C647.184 168.184 647.947 167.888 648.669 167.368C649.498 166.776 649.912 166.101 649.912 165.344C649.912 164.942 649.651 164.598 649.131 164.314C648.681 164.054 648.237 163.924 647.799 163.924C646.888 163.924 645.912 164.362 644.871 165.238C642.752 167.013 641.693 168.977 641.693 171.131V178.657L638.285 176.882V163.746H641.729V165.096C642.238 164.587 643.291 164.054 644.888 163.498C645.669 163.226 646.474 163.09 647.302 163.09C649.018 163.09 650.474 163.746 651.669 165.06C652.249 165.699 652.539 166.427 652.539 167.243ZM675.259 160.871H669.366V178.142C669.248 178.142 668.218 177.68 666.278 176.757V160.871H663.26V158.741H666.136C666.136 158.457 665.863 157.936 665.319 157.179L664.272 155.723C663.976 155.203 663.828 154.629 663.828 154.002C663.828 153.339 664.094 152.635 664.627 151.889C665.1 151.227 665.65 150.694 666.278 150.292C667.082 149.783 668.011 149.528 669.064 149.528C671.23 149.528 672.81 150.28 673.804 151.783C674.265 152.481 674.543 153.297 674.638 154.232C673.585 152.599 672.277 151.783 670.715 151.783C669.425 151.783 668.443 152.286 667.769 153.292C667.449 153.765 667.289 154.256 667.289 154.765C667.289 155.569 667.934 156.564 669.224 157.747C669.319 158.007 669.366 158.339 669.366 158.741H675.259V160.871ZM680.975 156.877C680.928 156.924 680.791 156.948 680.567 156.948C680.377 156.948 680.212 156.924 680.07 156.877L678.916 154.516C678.442 153.771 677.798 153.268 676.981 153.008C676.176 152.735 675.679 152.44 675.49 152.12C675.313 151.576 674.969 150.741 674.46 149.617V149.209H675.153C676.064 149.493 676.804 149.759 677.372 150.008C678.306 150.422 678.934 150.901 679.253 151.445C679.431 151.741 679.703 152.499 680.07 153.718C680.413 154.865 680.703 155.664 680.939 156.114C680.963 156.327 680.975 156.581 680.975 156.877ZM682.022 160.871H674.798V158.741H682.022V160.871ZM679.999 178.408L677.017 176.757V163.054H679.999V178.408ZM700.802 160.871H681.72V158.741H700.802V160.871ZM696.986 168.663C696.986 165.823 695.643 164.403 692.956 164.403C690.968 164.403 689.306 165.445 687.969 167.527C686.785 169.373 686.193 171.338 686.193 173.42V178.586L683.282 177.059V163.711H686.335V165.823L687.915 164.634C689.312 163.581 690.785 163.054 692.335 163.054C694.441 163.054 696.187 163.871 697.571 165.504C698.873 167.042 699.524 168.882 699.524 171.024C699.524 173.71 698.388 176.29 696.116 178.763L692.69 176.615C693.755 175.562 694.66 174.592 695.406 173.704C696.459 172.45 696.986 170.77 696.986 168.663ZM718.996 180.876C718.996 183.077 717.931 184.177 715.801 184.177C714.854 184.177 713.482 183.727 711.683 182.828C709.695 181.834 708.026 181.337 706.677 181.337C703.778 181.337 701.045 182.479 698.477 184.763C697.246 185.863 696.282 187.159 695.583 188.65C695.536 188.461 695.512 188.159 695.512 187.745C695.512 186.325 695.938 184.911 696.79 183.503C697.571 182.201 698.583 181.112 699.826 180.237C701.222 179.254 702.814 178.763 704.601 178.763C705.831 178.763 706.902 178.97 707.813 179.385C708.299 179.609 709.233 180.189 710.618 181.124C711.801 181.929 712.707 182.331 713.334 182.331C714.896 182.331 716.138 181.686 717.061 180.396C717.464 179.84 717.665 179.296 717.665 178.763C717.665 177.828 717.381 177.047 716.813 176.42C716.245 175.781 715.499 175.462 714.576 175.462C713.724 175.462 712.322 175.894 710.369 176.757C708.417 177.609 707.015 178.036 706.163 178.036C705.535 178.036 704.778 177.722 703.891 177.095C702.045 175.781 701.122 174.556 701.122 173.42C701.122 172.793 701.471 172.219 702.169 171.699C702.796 171.213 703.441 170.941 704.104 170.882L704.139 170.687L703.269 169.462C702.784 168.776 702.542 168.036 702.542 167.243C702.542 164.522 704.766 163.161 709.216 163.161C709.346 163.137 709.435 163.031 709.482 162.841V160.871H700.287V158.741H718.535V160.871H712.233V163.853C712.233 164.409 712.393 164.752 712.713 164.882C712.914 164.882 713.168 164.699 713.476 164.332L714.15 163.516C714.328 163.338 714.647 163.22 715.109 163.161C715.854 163.161 716.564 163.587 717.239 164.439C717.547 164.829 717.748 165.22 717.842 165.61L715.979 167.74C715.955 167.196 715.842 166.699 715.641 166.249C715.369 165.646 715.014 165.344 714.576 165.344C714.411 165.344 714.215 165.421 713.991 165.575C713.766 165.729 713.653 165.882 713.653 166.036C713.653 166.214 713.73 166.427 713.884 166.675C714.062 166.971 714.162 167.155 714.186 167.226C714.269 167.498 714.31 167.841 714.31 168.255C714.31 169.853 713.659 170.935 712.357 171.503C711.494 171.882 710.133 172.071 708.275 172.071C705.908 172.071 704.293 172.598 703.429 173.651C703.086 174.065 702.92 174.403 702.932 174.663C702.944 175.018 703.121 175.332 703.465 175.604C703.808 175.864 704.163 175.994 704.53 175.994C705.204 175.994 706.5 175.527 708.417 174.592C710.677 173.491 712.499 172.929 713.884 172.906C715.15 172.882 716.215 173.444 717.079 174.592C717.777 175.503 718.28 176.663 718.588 178.071C718.86 179.314 718.996 180.248 718.996 180.876ZM712.091 166.622C712.091 165.19 711.328 164.474 709.801 164.474C708.571 164.474 707.405 164.906 706.305 165.77C705.121 166.693 704.53 167.752 704.53 168.947C704.53 169.598 704.778 170.154 705.275 170.616C705.784 171.077 706.364 171.308 707.015 171.308C707.689 171.32 708.452 171.077 709.304 170.58C710.062 170.143 710.689 169.634 711.186 169.054C711.789 168.344 712.091 167.533 712.091 166.622ZM736.942 160.871H732.096V164.368C732.652 164.498 733.054 164.658 733.303 164.847V166.942C731.895 166.456 730.427 166.214 728.901 166.214C727.8 166.214 726.735 166.397 725.706 166.764C724.333 167.249 723.641 167.941 723.629 168.841C723.605 169.788 724.948 170.261 727.658 170.261C727.717 170.261 728.102 170.243 728.812 170.208L729.877 170.154V171.787C728.268 171.835 727.262 171.876 726.86 171.912C724.031 172.16 722.617 172.977 722.617 174.361C722.617 175.13 723.108 175.734 724.09 176.172C724.86 176.515 725.688 176.686 726.576 176.686C730.421 176.686 733.534 174.982 735.912 171.574V176.065C733.877 177.355 731.469 178 728.688 178C725.647 178 723.02 177.296 720.807 175.888C719.73 175.201 719.191 174.414 719.191 173.527C719.191 172.663 719.57 171.912 720.327 171.273C720.789 170.882 721.552 170.432 722.617 169.924L721.446 169.249C720.747 168.847 720.398 168.308 720.398 167.634C720.398 166.166 721.505 165.113 723.718 164.474C725.398 163.989 727.286 163.746 729.38 163.746V160.871H718.002V158.741H736.942V160.871ZM754.479 160.871H736.533V158.741H754.479V160.871ZM753.006 167.243C753.006 167.941 752.586 168.728 751.745 169.604C751.035 170.35 750.29 170.906 749.509 171.273L746.846 168.255C747.651 168.184 748.414 167.888 749.136 167.368C749.965 166.776 750.379 166.101 750.379 165.344C750.379 164.942 750.118 164.598 749.598 164.314C749.148 164.054 748.704 163.924 748.266 163.924C747.355 163.924 746.379 164.362 745.338 165.238C743.219 167.013 742.16 168.977 742.16 171.131V178.657L738.752 176.882V163.746H742.196V165.096C742.705 164.587 743.758 164.054 745.355 163.498C746.136 163.226 746.941 163.09 747.769 163.09C749.485 163.09 750.941 163.746 752.136 165.06C752.716 165.699 753.006 166.427 753.006 167.243ZM769.886 160.871H760.905V175.16C760.905 175.562 761.035 175.953 761.295 176.331C761.567 176.746 761.899 176.953 762.289 176.953C764.052 176.953 764.934 175.13 764.934 171.486L768.502 173.527C767.141 176.544 765.035 178.047 762.183 178.036C760.526 178.024 759.236 177.266 758.313 175.763C757.911 175.113 757.71 174.462 757.71 173.811V160.871H754V158.741H757.71V152.777L760.905 154.996V158.741H769.886V160.871ZM775.655 156.877C775.608 156.924 775.472 156.948 775.247 156.948C775.058 156.948 774.892 156.924 774.75 156.877L773.596 154.516C773.123 153.771 772.478 153.268 771.661 153.008C770.857 152.735 770.36 152.44 770.17 152.12C769.993 151.576 769.65 150.741 769.141 149.617V149.209H769.833C770.744 149.493 771.484 149.759 772.052 150.008C772.987 150.422 773.614 150.901 773.933 151.445C774.111 151.741 774.383 152.499 774.75 153.718C775.093 154.865 775.383 155.664 775.62 156.114C775.643 156.327 775.655 156.581 775.655 156.877ZM776.702 160.871H769.478V158.741H776.702V160.871ZM774.679 178.408L771.697 176.757V163.054H774.679V178.408ZM796.725 160.871H776.365V158.741H796.725V160.871ZM795.305 170.687C795.305 171.989 794.914 173.219 794.133 174.379C793.411 175.456 792.459 176.337 791.276 177.024C790.092 177.698 788.998 178.036 787.992 178.036C787.01 178.036 785.785 177.485 784.317 176.385C783.607 175.852 782.566 174.935 781.193 173.633V188.686L778.353 187.195V163.711H781.122V168.042L782.205 166.906C784.702 164.291 786.726 162.983 788.276 162.983C789.956 162.983 791.56 163.853 793.086 165.593C794.565 167.285 795.305 168.983 795.305 170.687ZM793.548 168.628C793.548 167.728 793.08 166.865 792.145 166.036C791.684 165.622 791.098 165.415 790.388 165.415C788.992 165.415 787.258 166.261 785.187 167.953C783.057 169.693 781.992 171.237 781.992 172.586C781.992 173.379 782.732 174.077 784.211 174.681C784.874 174.953 785.519 175.089 786.146 175.089C788.205 175.089 789.992 174.296 791.506 172.71C792.867 171.29 793.548 169.93 793.548 168.628ZM814.422 160.871H812.487V167.598C811.789 167.184 810.783 166.829 809.47 166.533C808.239 166.249 807.174 166.107 806.275 166.107C804.109 166.107 802.293 166.492 800.825 167.261C799.997 167.699 799.583 168.273 799.583 168.983C799.583 169.93 800.08 170.403 801.074 170.403C801.677 170.403 802.464 170.225 803.435 169.87C804.062 169.646 804.866 169.361 805.849 169.018C806.263 168.876 806.996 168.805 808.05 168.805C810.097 168.805 811.623 169.438 812.629 170.705C813.114 171.308 813.357 172.018 813.357 172.835C813.357 174.716 812.174 176.195 809.807 177.272C808.825 177.722 807.89 177.976 807.002 178.036C807.854 178.888 808.665 179.314 809.434 179.314C809.683 179.314 809.949 179.278 810.233 179.207L812.026 182.136C811.659 182.455 810.907 182.615 809.771 182.615C808.848 182.615 808.067 182.301 807.428 181.674C807.085 181.331 806.6 180.615 805.973 179.527C805.44 178.592 804.997 178.118 804.642 178.107C802.452 178.047 800.766 177.651 799.583 176.917C798.837 176.456 798.464 175.823 798.464 175.018C798.464 174.024 799.056 173.527 800.239 173.527C800.677 173.527 801.588 173.87 802.973 174.556C804.369 175.231 805.517 175.568 806.417 175.568C808.215 175.568 809.902 175.142 811.475 174.29C812.245 173.876 812.629 173.367 812.629 172.764C812.629 171.864 811.919 171.415 810.499 171.415C810.061 171.415 808.647 171.734 806.257 172.373C804.849 172.752 803.985 172.941 803.665 172.941C801.784 172.941 800.234 172.054 799.015 170.279C798.423 169.427 798.127 168.509 798.127 167.527C798.115 165.527 799.482 164.178 802.227 163.48C803.352 163.196 804.411 163.054 805.405 163.054C806.541 163.054 808.15 163.332 810.233 163.888V160.871H796.104V158.741H814.422V160.871Z" fill="white" fill-opacity="0.61"/>
</g>
<defs>
<filter id="filter0_d_57_132" x="0" y="0" width="832.422" height="218.512" filterUnits="userSpaceOnUse" color-interpolation-filters="sRGB">
<feFlood flood-opacity="0" result="BackgroundImageFix"/>
<feColorMatrix in="SourceAlpha" type="matrix" values="0 0 0 0 0 0 0 0 0 0 0 0 0 0 0 0 0 0 127 0" result="hardAlpha"/>
<feOffset dx="10" dy="15"/>
<feGaussianBlur stdDeviation="4"/>
<feComposite in2="hardAlpha" operator="out"/>
<feColorMatrix type="matrix" values="0 0 0 0 0 0 0 0 0 0 0 0 0 0 0 0 0 0 0.25 0"/>
<feBlend mode="normal" in2="BackgroundImageFix" result="effect1_dropShadow_57_132"/>
<feBlend mode="normal" in="SourceGraphic" in2="effect1_dropShadow_57_132" result="shape"/>
</filter>
</defs>
</svg>
